<?xml version="1.0" encoding="iso-8859-1"?>
<!-- Generator: Adobe Illustrator 21.0.0, SVG Export Plug-In . SVG Version: 6.00 Build 0)  -->
<svg version="1.1" id="Layer_1" xmlns="http://www.w3.org/2000/svg" xmlns:xlink="http://www.w3.org/1999/xlink" x="0px" y="0px"
	 viewBox="0 0 24 24" enable-background="new 0 0 24 24" xml:space="preserve">
<g>
	<path fill="black" d="M6.2314453,21c-0.1376953-0.2402344-0.4453125-0.3203125-0.6826172-0.1831055L5,21.1337891V20.5
		C5,20.2236328,4.7763672,20,4.5,20S4,20.2236328,4,20.5v0.6337891l-0.5488281-0.3168945
		C3.2119141,20.6811523,2.9052734,20.7602539,2.7685547,21c-0.1386719,0.2392578-0.0566406,0.5449219,0.1826172,0.6831055
		L3.499939,22l-0.5487671,0.3168945C2.7119141,22.4550781,2.6298828,22.7607422,2.7685547,23
		c0.0917969,0.1606445,0.2607422,0.25,0.4326172,0.25c0.0849609,0,0.1708984-0.0214844,0.25-0.0668945L4,22.8662109V23.5
		C4,23.7763672,4.2236328,24,4.5,24S5,23.7763672,5,23.5v-0.6337891l0.5488281,0.3168945
		C5.6279297,23.2285156,5.7138672,23.25,5.7988281,23.25c0.171875,0,0.3408203-0.0893555,0.4326172-0.25
		c0.1386719-0.2392578,0.0566406-0.5449219-0.1826172-0.6831055L5.500061,22l0.5487671-0.3168945
		C6.2880859,21.5449219,6.3701172,21.2392578,6.2314453,21z"/>
	<path fill="black" d="M19.2314453,21c-0.1367188-0.2402344-0.4433594-0.3203125-0.6826172-0.1831055L18,21.1337891V20.5
		c0-0.2763672-0.2236328-0.5-0.5-0.5S17,20.2236328,17,20.5v0.6337891l-0.5488281-0.3168945
		C16.2119141,20.6811523,15.90625,20.7602539,15.7685547,21c-0.1386719,0.2392578-0.0566406,0.5449219,0.1826172,0.6831055
		L16.499939,22l-0.5487671,0.3168945C15.7119141,22.4550781,15.6298828,22.7607422,15.7685547,23
		c0.0917969,0.1606445,0.2607422,0.25,0.4326172,0.25c0.0849609,0,0.1708984-0.0214844,0.25-0.0668945L17,22.8662109V23.5
		c0,0.2763672,0.2236328,0.5,0.5,0.5s0.5-0.2236328,0.5-0.5v-0.6337891l0.5488281,0.3168945
		c0.0791016,0.0454102,0.1650391,0.0668945,0.25,0.0668945c0.171875,0,0.3408203-0.0893555,0.4326172-0.25
		c0.1386719-0.2392578,0.0566406-0.5449219-0.1826172-0.6831055L18.500061,22l0.5487671-0.3168945
		C19.2880859,21.5449219,19.3701172,21.2392578,19.2314453,21z"/>
	<path fill="black" d="M11.5,3c0.7246094,0,0.8896484,0.097168,1.1464844,0.3540039C12.9033203,3.6098633,13,3.7749023,13,4.5
		C13,4.7763672,13.2236328,5,13.5,5S14,4.7763672,14,4.5c0-0.7250977,0.0966797-0.8901367,0.3535156-1.1459961
		C14.6103516,3.097168,14.7753906,3,15.5,3C15.7763672,3,16,2.7763672,16,2.5S15.7763672,2,15.5,2
		c-0.7246094,0-0.8896484-0.097168-1.1464844-0.3540039C14.0966797,1.3901367,14,1.2250977,14,0.5C14,0.2236328,13.7763672,0,13.5,0
		S13,0.2236328,13,0.5c0,0.7250977-0.0966797,0.8901367-0.3535156,1.1459961C12.3896484,1.902832,12.2246094,2,11.5,2
		C11.2236328,2,11,2.2236328,11,2.5S11.2236328,3,11.5,3z"/>
	<path fill="black" d="M17,9c-0.9990234,0-1.9638672,0.2939453-2.7890625,0.8491211
		c-0.2265625,0.1513672-0.5478516,0.0854492-0.6953125-0.1347656c-0.1533203-0.2290039-0.0927734-0.5405273,0.1347656-0.6938477
		c0.3173828-0.2128906,0.6757813-0.3959961,1.1289063-0.5771484c0.1464844-0.0585938,0.2568359-0.1826172,0.2978516-0.3349609
		c0.0400391-0.1523438,0.0068359-0.3149414-0.0908203-0.4389648C13.6484375,5.9731445,11.6494141,5,9.5,5
		C6.6621094,5,4.1269531,6.7016602,3.0419922,9.3349609C2.9746094,9.496582,2.9980469,9.6816406,3.1015625,9.8222656
		c0.1044922,0.140625,0.2695313,0.2177734,0.4482422,0.2011719C3.6982422,10.0092773,3.8476563,10,4,10
		c0.2753906,0,0.5,0.2241211,0.5,0.5S4.2753906,11,4,11c-2.2060547,0-4,1.7944336-4,4s1.7939453,4,4,4h6v1.1338501
		l-1.4150391-0.8169556C8.3457031,19.1796875,8.0390625,19.2602539,7.9023438,19.5
		c-0.1386719,0.2392578-0.0566406,0.5449219,0.1826172,0.6831055L9.4998779,21l-1.414917,0.8168945
		C7.8457031,21.9550781,7.7636719,22.2607422,7.9023438,22.5c0.0917969,0.1606445,0.2607422,0.25,0.4326172,0.25
		c0.0849609,0,0.1708984-0.0214844,0.25-0.0668945L10,21.8661499V23.5c0,0.2763672,0.2236328,0.5,0.5,0.5s0.5-0.2236328,0.5-0.5
		v-1.6338501l1.4150391,0.8169556c0.0791016,0.0454102,0.1650391,0.0668945,0.25,0.0668945
		c0.171875,0,0.3408203-0.0893555,0.4326172-0.25c0.1386719-0.2392578,0.0566406-0.5449219-0.1826172-0.6831055L11.5001221,21
		l1.414917-0.8168945c0.2392578-0.1381836,0.3212891-0.4438477,0.1826172-0.6831055
		c-0.1376953-0.2407227-0.4443359-0.3217773-0.6826172-0.1831055L11,20.1338501V19h6c2.7568359,0,5-2.2431641,5-5S19.7568359,9,17,9
		z"/>
	<path fill="black" d="M19.1728516,0.0307617c-0.1835938-0.065918-0.3876953-0.0224609-0.5263672,0.1157227
		c-0.1376953,0.1376953-0.1826172,0.3432617-0.1152344,0.5263672C18.7871094,1.3701172,19,2.0078125,19,2.75
		c0,1.6630859-0.6591797,3.2329102-1.8564453,4.4204102c-0.1386719,0.1376953-0.1845703,0.3442383-0.1162109,0.527832
		c0.0673828,0.1835938,0.2353516,0.3110352,0.4306641,0.3256836c1.8535156,0.140625,3.5087891,1.1123047,4.5410156,2.6650391
		c0.0927734,0.1396484,0.2490234,0.2231445,0.4160156,0.2231445c0.0009766,0,0.0019531,0,0.0029297,0
		c0.1679688-0.0009766,0.3251953-0.0864258,0.4169922-0.2280273C23.5966797,9.5087891,24,8.1484375,24,6.75
		C24,3.7485352,22.1054688,1.1108398,19.1728516,0.0307617z"/>
</g>
<g>
</g>
<g>
</g>
<g>
</g>
<g>
</g>
<g>
</g>
<g>
</g>
<g>
</g>
<g>
</g>
<g>
</g>
<g>
</g>
<g>
</g>
<g>
</g>
<g>
</g>
<g>
</g>
<g>
</g>
</svg>
